PathFileType	4	(X/Y/Z)	45_1_50_p1_0-455.trc
DataRate	CameraRate	NumFrames	NumMarkers	Units	OrigDataRate	OrigDataStartFrame	OrigNumFrames
48.0	48.0	6	27	m	48.0	228	456
Frame#	Time	RHip			RKnee			RAnkle			RBigToe			RSmallToe			RHeel			LHip			LKnee			LAnkle			LBigToe			LSmallToe			LHeel			Neck			Head			Nose			RShoulder			RElbow			RWrist			RThumb			RIndex			RPinky			LShoulder			LElbow			LWrist			LThumb			LIndex			LPinky			
		X1	Y1	Z1	X2	Y2	Z2	X3	Y3	Z3	X4	Y4	Z4	X5	Y5	Z5	X6	Y6	Z6	X7	Y7	Z7	X8	Y8	Z8	X9	Y9	Z9	X10	Y10	Z10	X11	Y11	Z11	X12	Y12	Z12	X13	Y13	Z13	X14	Y14	Z14	X15	Y15	Z15	X16	Y16	Z16	X17	Y17	Z17	X18	Y18	Z18	X19	Y19	Z19	X20	Y20	Z20	X21	Y21	Z21	X22	Y22	Z22	X23	Y23	Z23	X24	Y24	Z24	X25	Y25	Z25	X26	Y26	Z26	X27	Y27	Z27	
228	4.75	0.5647282761136655	0.4593549651260566	0.9136562659165632	0.5844803802678079	0.632930693729095	1.3230960572783113	0.6028044132648034	0.8110702285713973	1.670781887365647	0.5945966512405277	0.7024165748705762	1.7589070432788858	0.6432121593514197	0.7223716293389775	1.7480984389537308	0.5892524163794967	0.9491942356718007	1.7275531071579278	0.35985998276782155	0.47548634534894507	0.9438899363285742	0.39260276264728594	0.6228623502099111	1.332972212922154	0.414202741487785	0.8422771943325524	1.7089699151298139	0.43250089107890366	0.6763011010840071	1.7602954610574773	0.37927692524930345	0.7197115213775183	1.7643544200188939	0.42800458329315105	0.9031636949443792	1.7468165014482506	0.41853526780173655	0.2614614561278038	0.4475942726154659	0.3868281843044109	0.13532316144901513	0.23130854579128496	0.4023640643682063	0.11461093763784642	0.3643884032044159	0.5683052035975118	0.3114005638654135	0.5151086908950349	0.6205381711983222	0.3390942228371887	0.7278971544502214	0.5225429440139095	0.2677182625653878	0.9372929549433159	0.4617083440815501	0.3595569846679007	1.0341145133587866	0.4585266542317343	0.35953713897270523	1.0363818020933626	0.4618442971797714	0.3624860040011937	1.0411938528564961	0.25463560788039913	0.29182690166037295	0.530660756057791	0.2729829457130855	0.35335024545785976	0.75336978268591	0.41313680042329154	0.2871196733466919	0.9403038800013921	0.47659905381063206	0.3564144076744314	1.0071836445400877	0.4828299111569728	0.3602284116879747	1.037205589711705	0.46277257481726713	0.3613161756374144	1.0402393232980733
229	4.770833333333333	0.5648070224729027	0.4594512978574723	0.9134370952776777	0.5844368801691973	0.6323974571480722	1.323042062038782	0.6073089449014247	0.8130228907753623	1.6704740406166323	0.5946699543297581	0.7024011125471351	1.759073238009174	0.6433615135338979	0.7223752062159698	1.7481100269855627	0.5859354427567506	0.9306471259830393	1.7197851727890685	0.358805663465871	0.4727179396642972	0.9392252262016944	0.39260506728992006	0.6229389680673271	1.3328938803023385	0.4149157014372096	0.840279009487836	1.7043696646739392	0.434963054697288	0.6911628743293937	1.7633798580096038	0.37935494607600484	0.7194246517070059	1.7642782348850978	0.42800280753197834	0.9024140078324505	1.746494387561542	0.41853868888728746	0.2613970164385786	0.44759132728308165	0.38305642922423644	0.13432328379016378	0.23206269207825062	0.4023570342513519	0.11457995848260637	0.3643655576661567	0.5683315533681318	0.31139534745187525	0.5150758462968705	0.62048342875174	0.3392269163251336	0.7278690935352713	0.5187566789118203	0.28039626229477915	0.9374778887388434	0.46187056682936645	0.3587270656052384	1.0296034204327127	0.4538246854056025	0.3720981931645286	1.0363176379692534	0.457353168756805	0.37458361774697563	1.0416560681672922	0.254649605729277	0.2919327471412398	0.5306668633629198	0.2729244333857042	0.35336947093565185	0.7533501578552492	0.4128731093852592	0.2882422133195033	0.9437598225264346	0.47674005438956096	0.35654415822974067	1.0072045280554849	0.48302499592259235	0.36057155617751363	1.037238884573548	0.4627531303899843	0.3613472837585383	1.0401793720407466
230	4.791666666666667	0.564796688185835	0.45933619402296466	0.9135581216726487	0.584244994922033	0.6329091199851167	1.3231059195370618	0.6073073640574531	0.8130991630605054	1.6704697974653464	0.5909241247315538	0.6885830712998197	1.7561909624733094	0.6432408006438829	0.7223241458510847	1.7480837376063587	0.5898748993038837	0.9470958804860425	1.7224722748492207	0.35990195858323626	0.4752659035139943	0.9437363614009657	0.3926189290268154	0.6225207716370141	1.332784323808913	0.4149102075313122	0.8404032397601147	1.704375198176752	0.4318481707234671	0.6780122642039745	1.7643890005127745	0.37931215973204585	0.719630054931103	1.764375350059551	0.4279749609567074	0.9027825151115225	1.7467169641503735	0.41853630609015574	0.2614286894004722	0.44758337610432947	0.3868003699363184	0.13561746921516332	0.2312263757266377	0.40233392524819334	0.11462944651690996	0.3643605808981995	0.5683094684389877	0.3113670317733211	0.5150833011944083	0.6205110701147944	0.33918865061100495	0.7278578730419154	0.5225726105101184	0.2679171620470242	0.9372283418873537	0.46190485830044326	0.358223120410842	1.0301080570115542	0.45483961544287915	0.37405602710927693	1.0404822146044965	0.45758745523968164	0.37535237119368325	1.0419716342450875	0.2546646147170353	0.29171692109690023	0.5306448186729619	0.2728821214918854	0.35365760861094997	0.753180119038929	0.41304889599194156	0.2871682089127491	0.9403091642707886	0.47317049531044497	0.35476613626444276	1.0075594322456156	0.4788901190620631	0.3598435555523874	1.03737584449938	0.462608598967505	0.3614217178046942	1.039803046168962
231	4.8125	0.5647546192535187	0.4591256773435608	0.9135048286100828	0.5831520614398235	0.6297457183945131	1.3188744586767207	0.6027058548163822	0.8108162006391874	1.6707444154210203	0.591047394514288	0.6890663824094181	1.7561326619604962	0.6479720851273523	0.7251038971176021	1.7479753134491864	0.5858924055207955	0.9306742928686387	1.7198753856301912	0.3588602004363747	0.4725919326414708	0.9392130133163904	0.3926191488061779	0.6228541039001031	1.3328256464891628	0.41490696147999234	0.8404086694533673	1.7044245552666417	0.43251891580312707	0.6760264271436895	1.7602853385211015	0.3792746542869772	0.7196116616048773	1.764365035729813	0.4279442808847614	0.9027959991828992	1.7467257036261623	0.41803289917584713	0.2609131819171963	0.44418625541615425	0.3869286306211266	0.13549602315435857	0.2312704519772006	0.4023201835765735	0.11462952364957647	0.364341942903634	0.5683060471316497	0.31130172865816924	0.515103700033909	0.6205922832348219	0.33909498675396454	0.7279441497842066	0.5225702596012279	0.2679733979712755	0.9372469832548024	0.4618930104312731	0.35829312069753594	1.0299823797515153	0.4537757548867453	0.3717631420293669	1.0364784019464237	0.4573421864486006	0.3748483206470751	1.0416542252544632	0.25469878356577136	0.29182150055805933	0.5306001452874449	0.2729093453789076	0.3535685867369767	0.7531572473558367	0.4129684840156769	0.28708353417389576	0.9403437975334357	0.47266940801571167	0.3547621212695474	1.0047501493157296	0.47881427613108585	0.36024057720734237	1.0372217410822193	0.46295954286699204	0.3602569630018309	1.0361779249562604
232	4.833333333333333	0.5690592359986612	0.4437614216142109	0.9098010888017274	0.5845656664915067	0.6328973725535606	1.3230063636586464	0.6027558491913516	0.8107305120685806	1.670707063935681	0.5933656300955343	0.6998777932733592	1.7546473963806795	0.6479804827093834	0.725452135418816	1.747981519918729	0.5852845926997519	0.9325315088927636	1.7249149129237058	0.3602045675476994	0.47349110337455924	0.93971584589668	0.39383638603819576	0.6262427709109472	1.3377521228224272	0.41428050327606586	0.8421443392686363	1.709004051320925	0.43255384203301217	0.6760361694865119	1.7603116542581752	0.37961865201708656	0.7191665399958074	1.7643072131724347	0.42803539018358444	0.9029587047926472	1.7467952328507463	0.4185747185816839	0.26149341236286006	0.4476054104853824	0.3869997713788932	0.13559142968643495	0.2312603329588639	0.402304216329386	0.11461690224605454	0.36433704472813727	0.5682998610267727	0.31126947374230846	0.5151347461166778	0.6205701103609985	0.3390990080829736	0.7279418314978076	0.5225262096518296	0.2678240174352532	0.93719531063408	0.45811872696818645	0.3564884042130433	1.0274912041670494	0.45839645506779275	0.35928978537467987	1.035961427237344	0.46170525523736267	0.3620346363084847	1.040932145211455	0.2546828787914743	0.29185346271414314	0.5305965711136117	0.2729427636387492	0.35349373879088236	0.7532100522936764	0.41297755702619016	0.2869869280691537	0.9404003723883693	0.47277625772900883	0.3547396846169288	1.0048406372788454	0.47898870110735475	0.36005923431991005	1.0374660436377015	0.46306301884555945	0.36006365565187226	1.0362249537197412
233	4.854166666666667	0.5690896786375684	0.4440014282432807	0.9097296900617391	0.5844485117224318	0.6323868855368787	1.3229937576972568	0.6071988495938047	0.8126051434662497	1.6703368818180104	0.5910378298239449	0.6886127814916458	1.7560445451763738	0.6520579145531842	0.7071949225460373	1.7432421999611474	0.585058619159605	0.9308602346010884	1.7155258181347124	0.3591662651158713	0.47061452110191765	0.9352201992742213	0.39401889783707267	0.6255704622326016	1.3375602037955747	0.41424278687772437	0.8421275790036614	1.708894532722413	0.4325426921481567	0.6761686093008067	1.7603353338942815	0.379474956212038	0.7193631708491053	1.764315638844791	0.4281341242195682	0.9035611834308319	1.7467620117273233	0.4180284558387877	0.2608697425907124	0.44422516362264325	0.38704936317908395	0.13573252268179864	0.2312077237709789	0.402321101485996	0.11459077279507851	0.3643454308670609	0.5683159937785074	0.3113494594170645	0.5151271359952371	0.6246166053167432	0.33938751175404525	0.727390368833955	0.522596763051431	0.2680028425366543	0.9372343988871868	0.45853207315757694	0.3461531831348758	1.0302480245635672	0.4583114648469545	0.3590470266405969	1.0360405845703298	0.46208678189885777	0.36301494250581945	1.0414635586795715	0.2546563877650416	0.2917326790536674	0.5306207049554529	0.2729193701354737	0.35360314407832333	0.7531293258955277	0.4129338267084604	0.2870911676364173	0.9402251567605827	0.472690239112969	0.3543411437309699	1.004696309247947	0.4789262506250257	0.3595592759654039	1.0373548821362524	0.456314252563464	0.3481825381586978	1.0403609329066759
